<svg width="28" height="28" viewBox="0 0 28 28" fill="none" xmlns="http://www.w3.org/2000/svg">
<path d="M11.125 1.875V3.5H17.625V1.875C17.625 1.01172 18.3359 0.25 19.25 0.25C20.1133 0.25 20.875 1.01172 20.875 1.875V3.5H23.3125C24.6328 3.5 25.75 4.61719 25.75 5.9375V8.375H3V5.9375C3 4.61719 4.06641 3.5 5.4375 3.5H7.875V1.875C7.875 1.01172 8.58594 0.25 9.5 0.25C10.3633 0.25 11.125 1.01172 11.125 1.875ZM3 10H25.75V23.8125C25.75 25.1836 24.6328 26.25 23.3125 26.25H5.4375C4.06641 26.25 3 25.1836 3 23.8125V10ZM6.25 15.6875C6.25 16.1445 6.60547 16.5 7.0625 16.5H8.6875C9.09375 16.5 9.5 16.1445 9.5 15.6875V14.0625C9.5 13.6562 9.09375 13.25 8.6875 13.25H7.0625C6.60547 13.25 6.25 13.6562 6.25 14.0625V15.6875ZM12.75 15.6875C12.75 16.1445 13.1055 16.5 13.5625 16.5H15.1875C15.5938 16.5 16 16.1445 16 15.6875V14.0625C16 13.6562 15.5938 13.25 15.1875 13.25H13.5625C13.1055 13.25 12.75 13.6562 12.75 14.0625V15.6875ZM20.0625 13.25C19.6055 13.25 19.25 13.6562 19.25 14.0625V15.6875C19.25 16.1445 19.6055 16.5 20.0625 16.5H21.6875C22.0938 16.5 22.5 16.1445 22.5 15.6875V14.0625C22.5 13.6562 22.0938 13.25 21.6875 13.25H20.0625ZM6.25 22.1875C6.25 22.6445 6.60547 23 7.0625 23H8.6875C9.09375 23 9.5 22.6445 9.5 22.1875V20.5625C9.5 20.1562 9.09375 19.75 8.6875 19.75H7.0625C6.60547 19.75 6.25 20.1562 6.25 20.5625V22.1875ZM13.5625 19.75C13.1055 19.75 12.75 20.1562 12.75 20.5625V22.1875C12.75 22.6445 13.1055 23 13.5625 23H15.1875C15.5938 23 16 22.6445 16 22.1875V20.5625C16 20.1562 15.5938 19.75 15.1875 19.75H13.5625ZM19.25 22.1875C19.25 22.6445 19.6055 23 20.0625 23H21.6875C22.0938 23 22.5 22.6445 22.5 22.1875V20.5625C22.5 20.1562 22.0938 19.75 21.6875 19.75H20.0625C19.6055 19.75 19.25 20.1562 19.25 20.5625V22.1875Z" fill="#846B56"/>
</svg>
