<svg width="20" height="27" viewBox="0 0 20 27" fill="none" xmlns="http://www.w3.org/2000/svg">
<path d="M4.46875 15.6875H4.0625V13.25H4.46875C5.12891 13.25 5.6875 13.8086 5.6875 14.4688C5.6875 15.1797 5.12891 15.6875 4.46875 15.6875ZM9.75 13.25H10.1562C10.5625 13.25 10.9688 13.6562 10.9688 14.0625V17.3125C10.9688 17.7695 10.5625 18.125 10.1562 18.125H9.75V13.25ZM11.375 0.25V6.75C11.375 7.66406 12.0859 8.375 13 8.375H19.5V23C19.5 24.8281 18.0273 26.25 16.25 26.25H3.25C1.42188 26.25 0 24.8281 0 23V3.5C0 1.72266 1.42188 0.25 3.25 0.25H11.375ZM3.25 11.625C2.79297 11.625 2.4375 12.0312 2.4375 12.4375V18.9375C2.4375 19.3945 2.79297 19.75 3.25 19.75C3.65625 19.75 4.0625 19.3945 4.0625 18.9375V17.3125H4.46875C5.99219 17.3125 7.3125 16.043 7.3125 14.4688C7.3125 12.9453 5.99219 11.625 4.46875 11.625H3.25ZM8.125 18.9375C8.125 19.3945 8.48047 19.75 8.9375 19.75H10.1562C11.4766 19.75 12.5938 18.6836 12.5938 17.3125V14.0625C12.5938 12.7422 11.4766 11.625 10.1562 11.625H8.9375C8.48047 11.625 8.125 12.0312 8.125 12.4375V18.9375ZM14.625 11.625C14.168 11.625 13.8125 12.0312 13.8125 12.4375V18.9375C13.8125 19.3945 14.168 19.75 14.625 19.75C15.0312 19.75 15.4375 19.3945 15.4375 18.9375V16.5H17.0625C17.4688 16.5 17.875 16.1445 17.875 15.6875C17.875 15.2812 17.4688 14.875 17.0625 14.875H15.4375V13.25H17.0625C17.4688 13.25 17.875 12.8945 17.875 12.4375C17.875 12.0312 17.4688 11.625 17.0625 11.625H14.625ZM13 0.25L19.5 6.75H13V0.25Z" fill="#846B56"/>
</svg>
