<svg width="20" height="27" viewBox="0 0 20 27" fill="none" xmlns="http://www.w3.org/2000/svg">
<path d="M11.375 6.75V0.25H2.4375C1.06641 0.25 0 1.36719 0 2.6875V23.8125C0 25.1836 1.06641 26.25 2.4375 26.25H17.0625C18.3828 26.25 19.5 25.1836 19.5 23.8125V8.375H13C12.0859 8.375 11.375 7.66406 11.375 6.75ZM4.875 11.625C5.73828 11.625 6.5 12.3867 6.5 13.25C6.5 14.1641 5.73828 14.875 4.875 14.875C3.96094 14.875 3.25 14.1641 3.25 13.25C3.25 12.3867 3.96094 11.625 4.875 11.625ZM16.1484 22.5938C15.9961 22.8477 15.6914 23 15.4375 23H4.0625C3.75781 23 3.45312 22.8477 3.30078 22.5938C3.19922 22.3398 3.19922 22.0352 3.35156 21.7812L6.09375 17.7188C6.19531 17.4648 6.44922 17.3125 6.75391 17.3125C7.05859 17.3125 7.26172 17.4648 7.41406 17.7188L8.125 18.7344L10.4102 15.2812C10.5625 15.0273 10.8164 14.875 11.0703 14.875C11.375 14.875 11.6289 15.0273 11.7812 15.2812L16.0977 21.7812C16.25 21.9844 16.25 22.3398 16.1484 22.5938ZM13 0.25V6.75H19.5L13 0.25Z" fill="#846B56"/>
</svg>
